<?xml version="1.0" encoding="UTF-8"?>
<svg xmlns="http://www.w3.org/2000/svg" xmlns:xlink="http://www.w3.org/1999/xlink" width="375pt" height="374.999991pt" viewBox="0 0 375 374.999991" version="1.2">
<defs>
<clipPath id="clip1">
  <path d="M 112.5 91.929688 L 186 91.929688 L 186 241.929688 L 112.5 241.929688 Z M 112.5 91.929688 "/>
</clipPath>
<clipPath id="clip2">
  <path d="M 200 91.929688 L 262.5 91.929688 L 262.5 241.929688 L 200 241.929688 Z M 200 91.929688 "/>
</clipPath>
</defs>
<g id="surface1">
<path style=" stroke:none;fill-rule:nonzero;fill:rgb(0%,0%,0%);fill-opacity:1;" d="M 136.125 137.824219 C 136.261719 140.269531 136.394531 140.9375 137.394531 142.917969 C 138.867188 145.929688 141.050781 148.136719 144.0625 149.617188 C 146.144531 150.65625 146.675781 150.753906 149.382812 150.855469 C 151.824219 150.957031 152.695312 150.855469 154.335938 150.28125 C 161.0625 148.003906 165.148438 141.472656 163.980469 134.742188 C 162.675781 126.804688 155.074219 121.449219 147.273438 123.023438 C 145.332031 123.394531 142.355469 124.894531 140.75 126.273438 C 137.5 129.085938 135.863281 133.097656 136.125 137.824219 Z M 136.125 137.824219 "/>
<g clip-path="url(#clip1)" clip-rule="nonzero">
<path style=" stroke:none;fill-rule:nonzero;fill:rgb(0%,0%,0%);fill-opacity:1;" d="M 144.601562 92.417969 C 129.664062 95.09375 117.648438 106.144531 113.867188 120.675781 C 112.5 125.929688 112.398438 129.011719 112.5625 169.722656 C 112.625 207.085938 112.664062 207.960938 113.300781 210.875 C 116.75 226.441406 127.800781 237.523438 143.53125 241.175781 C 145.574219 241.644531 148.1875 241.742188 164.992188 241.8125 C 182.367188 241.949219 184.175781 241.910156 184.648438 241.441406 C 185.117188 240.972656 185.148438 234.980469 185.148438 167.042969 C 185.148438 116.648438 185.050781 92.949219 184.851562 92.519531 C 184.550781 91.941406 184.011719 91.917969 165.800781 91.941406 C 151 91.980469 146.554688 92.082031 144.613281 92.410156 Z M 172.613281 104.011719 L 172.613281 166.960938 L 172.679688 166.957031 L 172.679688 229.867188 L 160.023438 229.707031 C 148.375 229.566406 147.136719 229.503906 144.792969 228.929688 C 134.78125 226.355469 127.382812 218.648438 125.273438 208.613281 C 124.605469 205.460938 124.605469 128.21875 125.242188 125.136719 C 127.117188 116.398438 133.175781 109.167969 141.3125 105.917969 C 145.398438 104.273438 147.304688 104.074219 160.59375 104.050781 Z M 172.613281 104.011719 "/>
</g>
<g clip-path="url(#clip2)" clip-rule="nonzero">
<path style=" stroke:none;fill-rule:nonzero;fill:rgb(0%,0%,0%);fill-opacity:1;" d="M 200.238281 92.117188 C 200.101562 92.21875 200.039062 125.867188 200.039062 166.957031 C 200.039062 234.691406 200.074219 241.554688 200.539062 241.753906 C 201.375 242.054688 225.476562 241.957031 228.457031 241.617188 C 241.074219 240.175781 252.226562 232.511719 258.25 221.125 C 259.019531 219.65625 260.054688 217.210938 260.59375 215.707031 C 262.539062 209.875 262.5 211.417969 262.5 166.785156 C 262.5 131.15625 262.4375 125.835938 262 123.59375 C 258.917969 107.417969 246.570312 95.199219 230.363281 92.425781 C 228.179688 92.054688 224.84375 91.949219 214.023438 91.949219 C 206.523438 91.910156 200.332031 92.011719 200.230469 92.113281 L 200.238281 92.113281 Z M 215.261719 169.835938 C 217.570312 162.238281 225.636719 157.75 233.414062 159.792969 L 233.414062 159.785156 C 238.269531 161.054688 242.21875 164.742188 243.855469 169.46875 C 244.894531 172.378906 244.863281 176.667969 243.820312 179.347656 C 241.914062 184.269531 238.195312 187.71875 233.40625 188.992188 C 225.636719 191 217.375 186.3125 215.132812 178.613281 C 214.457031 176.269531 214.492188 172.28125 215.261719 169.835938 Z M 215.261719 169.835938 "/>
</g>
</g>
</svg>
