<?xml version="1.0" encoding="UTF-8"?>
<svg xmlns="http://www.w3.org/2000/svg" xmlns:xlink="http://www.w3.org/1999/xlink" width="375pt" height="374.999991pt" viewBox="0 0 375 374.999991" version="1.2">
<defs>
<clipPath id="clip1">
  <path d="M 124 112.5 L 265 112.5 L 265 231 L 124 231 Z M 124 112.5 "/>
</clipPath>
<clipPath id="clip2">
  <path d="M 129 236 L 222 236 L 222 273.644531 L 129 273.644531 Z M 129 236 "/>
</clipPath>
<clipPath id="clip3">
  <path d="M 113.71875 214 L 171 214 L 171 250 L 113.71875 250 Z M 113.71875 214 "/>
</clipPath>
<clipPath id="clip4">
  <path d="M 218 214 L 272.71875 214 L 272.71875 273.644531 L 218 273.644531 Z M 218 214 "/>
</clipPath>
</defs>
<g id="surface1">
<g clip-path="url(#clip1)" clip-rule="nonzero">
<path style=" stroke:none;fill-rule:nonzero;fill:rgb(6.269836%,5.879211%,5.099487%);fill-opacity:1;" d="M 259.464844 198.445312 C 259.464844 201.402344 257.039062 203.816406 254.066406 203.816406 L 135.339844 203.816406 C 132.367188 203.816406 129.941406 201.402344 129.941406 198.445312 L 129.941406 193.074219 L 259.464844 193.074219 Z M 210.132812 225.300781 L 179.269531 225.300781 L 183.320312 209.1875 L 206.085938 209.1875 Z M 129.941406 123.242188 C 129.941406 120.285156 132.367188 117.871094 135.339844 117.871094 L 254.066406 117.871094 C 257.039062 117.871094 259.464844 120.285156 259.464844 123.242188 L 259.464844 187.699219 L 129.941406 187.699219 Z M 254.066406 112.5 L 135.339844 112.5 C 129.382812 112.5 124.542969 117.316406 124.542969 123.242188 L 124.542969 198.445312 C 124.542969 204.371094 129.382812 209.1875 135.339844 209.1875 L 177.753906 209.1875 L 173.707031 225.300781 L 167.71875 225.300781 L 167.71875 230.671875 L 221.6875 230.671875 L 221.6875 225.300781 L 215.699219 225.300781 L 211.652344 209.1875 L 254.066406 209.1875 C 260.023438 209.1875 264.859375 204.371094 264.859375 198.445312 L 264.859375 123.242188 C 264.859375 117.316406 260.023438 112.5 254.066406 112.5 "/>
</g>
<g clip-path="url(#clip2)" clip-rule="nonzero">
<path style=" stroke:none;fill-rule:nonzero;fill:rgb(6.269836%,5.879211%,5.099487%);fill-opacity:1;" d="M 216.289062 268.273438 L 135.339844 268.273438 L 135.339844 241.414062 L 216.289062 241.414062 Z M 132.640625 236.042969 C 131.152344 236.042969 129.941406 237.25 129.941406 238.730469 L 129.941406 270.957031 C 129.941406 272.4375 131.152344 273.644531 132.640625 273.644531 L 218.988281 273.644531 C 220.476562 273.644531 221.6875 272.4375 221.6875 270.957031 L 221.6875 238.730469 C 221.6875 237.25 220.476562 236.042969 218.988281 236.042969 L 132.640625 236.042969 "/>
</g>
<path style=" stroke:none;fill-rule:nonzero;fill:rgb(6.269836%,5.879211%,5.099487%);fill-opacity:1;" d="M 146.132812 257.53125 L 140.734375 257.53125 L 140.734375 262.902344 L 146.132812 262.902344 L 146.132812 257.53125 "/>
<path style=" stroke:none;fill-rule:nonzero;fill:rgb(6.269836%,5.879211%,5.099487%);fill-opacity:1;" d="M 210.894531 257.53125 L 205.496094 257.53125 L 205.496094 262.902344 L 210.894531 262.902344 L 210.894531 257.53125 "/>
<path style=" stroke:none;fill-rule:nonzero;fill:rgb(6.269836%,5.879211%,5.099487%);fill-opacity:1;" d="M 146.132812 246.789062 L 140.734375 246.789062 L 140.734375 252.160156 L 146.132812 252.160156 L 146.132812 246.789062 "/>
<path style=" stroke:none;fill-rule:nonzero;fill:rgb(6.269836%,5.879211%,5.099487%);fill-opacity:1;" d="M 156.925781 246.789062 L 151.527344 246.789062 L 151.527344 252.160156 L 156.925781 252.160156 L 156.925781 246.789062 "/>
<path style=" stroke:none;fill-rule:nonzero;fill:rgb(6.269836%,5.879211%,5.099487%);fill-opacity:1;" d="M 167.71875 246.789062 L 162.320312 246.789062 L 162.320312 252.160156 L 167.71875 252.160156 L 167.71875 246.789062 "/>
<path style=" stroke:none;fill-rule:nonzero;fill:rgb(6.269836%,5.879211%,5.099487%);fill-opacity:1;" d="M 178.511719 246.789062 L 173.117188 246.789062 L 173.117188 252.160156 L 178.511719 252.160156 L 178.511719 246.789062 "/>
<path style=" stroke:none;fill-rule:nonzero;fill:rgb(6.269836%,5.879211%,5.099487%);fill-opacity:1;" d="M 200.101562 246.789062 L 194.703125 246.789062 L 194.703125 252.160156 L 200.101562 252.160156 L 200.101562 246.789062 "/>
<path style=" stroke:none;fill-rule:nonzero;fill:rgb(6.269836%,5.879211%,5.099487%);fill-opacity:1;" d="M 189.304688 246.789062 L 183.910156 246.789062 L 183.910156 252.160156 L 189.304688 252.160156 L 189.304688 246.789062 "/>
<path style=" stroke:none;fill-rule:nonzero;fill:rgb(6.269836%,5.879211%,5.099487%);fill-opacity:1;" d="M 210.894531 246.789062 L 205.496094 246.789062 L 205.496094 252.160156 L 210.894531 252.160156 L 210.894531 246.789062 "/>
<path style=" stroke:none;fill-rule:nonzero;fill:rgb(6.269836%,5.879211%,5.099487%);fill-opacity:1;" d="M 189.304688 257.53125 L 162.320312 257.53125 L 162.320312 262.902344 L 189.304688 262.902344 L 189.304688 257.53125 "/>
<path style=" stroke:none;fill-rule:nonzero;fill:rgb(6.269836%,5.879211%,5.099487%);fill-opacity:1;" d="M 156.925781 257.53125 L 151.527344 257.53125 L 151.527344 262.902344 L 156.925781 262.902344 L 156.925781 257.53125 "/>
<path style=" stroke:none;fill-rule:nonzero;fill:rgb(6.269836%,5.879211%,5.099487%);fill-opacity:1;" d="M 200.101562 257.53125 L 194.703125 257.53125 L 194.703125 262.902344 L 200.101562 262.902344 L 200.101562 257.53125 "/>
<path style=" stroke:none;fill-rule:nonzero;fill:rgb(6.269836%,5.879211%,5.099487%);fill-opacity:1;" d="M 237.878906 254.84375 L 243.273438 254.84375 L 243.273438 246.789062 L 237.878906 246.789062 L 237.878906 254.84375 "/>
<g clip-path="url(#clip3)" clip-rule="nonzero">
<path style=" stroke:none;fill-rule:nonzero;fill:rgb(6.269836%,5.879211%,5.099487%);fill-opacity:1;" d="M 121.847656 249.472656 L 124.542969 249.472656 L 124.542969 244.101562 L 121.847656 244.101562 C 120.359375 244.101562 119.148438 242.894531 119.148438 241.414062 L 119.148438 222.617188 C 119.148438 221.136719 120.359375 219.929688 121.847656 219.929688 L 170.417969 219.929688 L 170.417969 214.558594 L 121.847656 214.558594 C 117.378906 214.558594 113.75 218.167969 113.75 222.617188 L 113.75 241.414062 C 113.75 245.863281 117.378906 249.472656 121.847656 249.472656 "/>
</g>
<g clip-path="url(#clip4)" clip-rule="nonzero">
<path style=" stroke:none;fill-rule:nonzero;fill:rgb(6.269836%,5.879211%,5.099487%);fill-opacity:1;" d="M 248.671875 249.472656 L 248.671875 260.214844 C 248.671875 264.664062 245.042969 268.273438 240.574219 268.273438 C 236.105469 268.273438 232.480469 264.664062 232.480469 260.214844 L 232.480469 249.472656 C 232.480469 245.023438 236.105469 241.414062 240.574219 241.414062 C 245.042969 241.414062 248.671875 245.023438 248.671875 249.472656 Z M 245.972656 230.671875 L 264.859375 230.671875 C 269.332031 230.671875 272.957031 227.0625 272.957031 222.617188 C 272.957031 218.167969 269.332031 214.558594 264.859375 214.558594 L 218.988281 214.558594 L 218.988281 219.929688 L 264.859375 219.929688 C 266.347656 219.929688 267.558594 221.136719 267.558594 222.617188 C 267.558594 224.09375 266.347656 225.300781 264.859375 225.300781 L 245.972656 225.300781 C 241.503906 225.300781 237.878906 228.910156 237.878906 233.359375 L 237.878906 236.316406 C 231.722656 237.566406 227.082031 242.988281 227.082031 249.472656 L 227.082031 260.214844 C 227.082031 267.621094 233.132812 273.644531 240.574219 273.644531 C 248.015625 273.644531 254.066406 267.621094 254.066406 260.214844 L 254.066406 249.472656 C 254.066406 242.988281 249.429688 237.566406 243.273438 236.316406 L 243.273438 233.359375 C 243.273438 231.878906 244.484375 230.671875 245.972656 230.671875 "/>
</g>
<path style=" stroke:none;fill-rule:nonzero;fill:rgb(6.269836%,5.879211%,5.099487%);fill-opacity:1;" d="M 245.972656 133.984375 L 240.574219 133.984375 L 240.574219 128.613281 L 245.972656 128.613281 Z M 248.671875 123.242188 L 237.878906 123.242188 C 236.390625 123.242188 235.179688 124.449219 235.179688 125.929688 L 235.179688 136.671875 C 235.179688 138.152344 236.390625 139.359375 237.878906 139.359375 L 248.671875 139.359375 C 250.15625 139.359375 251.371094 138.152344 251.371094 136.671875 L 251.371094 125.929688 C 251.371094 124.449219 250.15625 123.242188 248.671875 123.242188 "/>
<path style=" stroke:none;fill-rule:nonzero;fill:rgb(6.269836%,5.879211%,5.099487%);fill-opacity:1;" d="M 224.386719 133.984375 L 218.988281 133.984375 L 218.988281 128.613281 L 224.386719 128.613281 Z M 227.082031 123.242188 L 216.289062 123.242188 C 214.804688 123.242188 213.589844 124.449219 213.589844 125.929688 L 213.589844 136.671875 C 213.589844 138.152344 214.804688 139.359375 216.289062 139.359375 L 227.082031 139.359375 C 228.570312 139.359375 229.78125 138.152344 229.78125 136.671875 L 229.78125 125.929688 C 229.78125 124.449219 228.570312 123.242188 227.082031 123.242188 "/>
<path style=" stroke:none;fill-rule:nonzero;fill:rgb(6.269836%,5.879211%,5.099487%);fill-opacity:1;" d="M 245.972656 155.472656 L 240.574219 155.472656 L 240.574219 150.101562 L 245.972656 150.101562 Z M 248.671875 144.730469 L 237.878906 144.730469 C 236.390625 144.730469 235.179688 145.933594 235.179688 147.414062 L 235.179688 158.15625 C 235.179688 159.636719 236.390625 160.84375 237.878906 160.84375 L 248.671875 160.84375 C 250.15625 160.84375 251.371094 159.636719 251.371094 158.15625 L 251.371094 147.414062 C 251.371094 145.933594 250.15625 144.730469 248.671875 144.730469 "/>
<path style=" stroke:none;fill-rule:nonzero;fill:rgb(6.269836%,5.879211%,5.099487%);fill-opacity:1;" d="M 224.386719 155.472656 L 218.988281 155.472656 L 218.988281 150.101562 L 224.386719 150.101562 Z M 227.082031 144.730469 L 216.289062 144.730469 C 214.804688 144.730469 213.589844 145.933594 213.589844 147.414062 L 213.589844 158.15625 C 213.589844 159.636719 214.804688 160.84375 216.289062 160.84375 L 227.082031 160.84375 C 228.570312 160.84375 229.78125 159.636719 229.78125 158.15625 L 229.78125 147.414062 C 229.78125 145.933594 228.570312 144.730469 227.082031 144.730469 "/>
<path style=" stroke:none;fill-rule:nonzero;fill:rgb(6.269836%,5.879211%,5.099487%);fill-opacity:1;" d="M 245.972656 176.957031 L 240.574219 176.957031 L 240.574219 171.585938 L 245.972656 171.585938 Z M 248.671875 166.214844 L 237.878906 166.214844 C 236.390625 166.214844 235.179688 167.421875 235.179688 168.902344 L 235.179688 179.644531 C 235.179688 181.121094 236.390625 182.328125 237.878906 182.328125 L 248.671875 182.328125 C 250.15625 182.328125 251.371094 181.121094 251.371094 179.644531 L 251.371094 168.902344 C 251.371094 167.421875 250.15625 166.214844 248.671875 166.214844 "/>
<path style=" stroke:none;fill-rule:nonzero;fill:rgb(6.269836%,5.879211%,5.099487%);fill-opacity:1;" d="M 224.386719 176.957031 L 218.988281 176.957031 L 218.988281 171.585938 L 224.386719 171.585938 Z M 227.082031 166.214844 L 216.289062 166.214844 C 214.804688 166.214844 213.589844 167.421875 213.589844 168.902344 L 213.589844 179.644531 C 213.589844 181.121094 214.804688 182.328125 216.289062 182.328125 L 227.082031 182.328125 C 228.570312 182.328125 229.78125 181.121094 229.78125 179.644531 L 229.78125 168.902344 C 229.78125 167.421875 228.570312 166.214844 227.082031 166.214844 "/>
<path style=" stroke:none;fill-rule:nonzero;fill:rgb(6.269836%,5.879211%,5.099487%);fill-opacity:1;" d="M 138.035156 131.300781 L 138.035156 139.359375 L 143.433594 139.359375 L 143.433594 131.300781 L 151.527344 131.300781 L 151.527344 125.929688 L 143.433594 125.929688 C 140.460938 125.929688 138.035156 128.339844 138.035156 131.300781 "/>
</g>
</svg>
