<?xml version="1.0" encoding="UTF-8"?>
<svg xmlns="http://www.w3.org/2000/svg" xmlns:xlink="http://www.w3.org/1999/xlink" width="375pt" height="374.999991pt" viewBox="0 0 375 374.999991" version="1.2">
<defs>
<clipPath id="clip1">
  <path d="M 112.5 102 L 296 102 L 296 250 L 112.5 250 Z M 112.5 102 "/>
</clipPath>
</defs>
<g id="surface1">
<g clip-path="url(#clip1)" clip-rule="nonzero">
<path style=" stroke:none;fill-rule:nonzero;fill:rgb(100%,100%,100%);fill-opacity:1;" d="M 179.078125 102.636719 L 179.078125 240.582031 L 209.027344 249.730469 L 209.027344 134.21875 C 209.027344 130.894531 209.027344 129.234375 210.6875 127.570312 C 211.519531 125.910156 213.179688 125.910156 214.839844 126.742188 C 219 128.398438 221.507812 131.726562 221.507812 138.378906 L 221.507812 184.070312 C 231.484375 189.054688 239.792969 189.054688 246.449219 184.070312 C 253.105469 179.085938 256.4375 171.613281 256.4375 159.148438 C 256.445312 145.855469 253.941406 137.542969 248.125 130.902344 C 243.132812 124.25 233.992188 118.429688 220.675781 114.273438 C 204.042969 109.289062 189.894531 105.132812 179.078125 102.636719 Z M 170.765625 189.070312 L 132.5 202.367188 L 126.6875 204.855469 C 117.542969 209.007812 112.550781 213.164062 112.550781 217.320312 C 113.382812 222.304688 115.042969 228.960938 127.519531 233.117188 C 139.164062 237.273438 148.316406 238.933594 171.609375 232.289062 L 171.609375 217.320312 C 149.140625 224.792969 145.816406 223.96875 142.488281 222.308594 C 139.160156 220.652344 139.15625 218.980469 139.984375 218.148438 C 142.484375 216.492188 151.632812 213.160156 151.632812 213.160156 L 170.765625 206.511719 Z M 255.402344 195.539062 C 252.699219 195.449219 249.996094 195.5 247.292969 195.707031 C 238.144531 195.707031 229.820312 197.371094 219.832031 199.867188 L 219.832031 217.320312 L 238.136719 210.660156 L 248.109375 207.34375 C 248.109375 207.34375 252.28125 206.515625 254.777344 205.683594 C 258.9375 204.855469 263.921875 206.511719 263.921875 206.511719 C 266.421875 206.511719 268.085938 207.335938 268.085938 209 C 268.917969 210.660156 267.25 211.5 263.09375 213.160156 L 253.949219 216.492188 L 220.675781 228.945312 L 220.675781 246.398438 L 235.644531 241.410156 L 277.230469 226.457031 L 282.222656 223.957031 C 292.203125 220.628906 296.363281 216.472656 295.53125 211.488281 C 295.53125 206.511719 289.710938 203.191406 279.734375 199.867188 C 271.621094 197.371094 263.511719 195.8125 255.402344 195.539062 Z M 255.402344 195.539062 "/>
</g>
</g>
</svg>
