<?xml version="1.0" encoding="UTF-8"?>
<svg xmlns="http://www.w3.org/2000/svg" xmlns:xlink="http://www.w3.org/1999/xlink" width="375pt" height="374.999991pt" viewBox="0 0 375 374.999991" version="1.2">
<defs>
<clipPath id="clip1">
  <path d="M 119 91.902344 L 262.5 91.902344 L 262.5 234.964844 L 119 234.964844 Z M 119 91.902344 "/>
</clipPath>
</defs>
<g id="surface1">
<g clip-path="url(#clip1)" clip-rule="nonzero">
<path style=" stroke:none;fill-rule:nonzero;fill:rgb(0%,0%,0%);fill-opacity:1;" d="M 262.789062 163.105469 C 262.785156 166.667969 262.515625 170.207031 261.980469 173.726562 C 261.449219 177.246094 260.652344 180.707031 259.597656 184.105469 C 258.542969 187.507812 257.242188 190.8125 255.691406 194.015625 C 254.140625 197.222656 252.355469 200.296875 250.34375 203.234375 C 249.574219 196.667969 248.261719 190.210938 246.398438 183.863281 C 244.535156 177.515625 242.148438 171.371094 239.246094 165.425781 C 236.339844 159.484375 232.953125 153.824219 229.089844 148.449219 C 225.226562 143.078125 220.933594 138.066406 216.21875 133.417969 C 215.628906 132.828125 215.035156 132.253906 214.433594 131.683594 C 223.023438 124.3125 232.476562 118.289062 242.796875 113.617188 C 245.984375 116.902344 248.828125 120.464844 251.324219 124.300781 C 253.820312 128.136719 255.925781 132.171875 257.636719 136.414062 C 259.351562 140.65625 260.640625 145.023438 261.507812 149.511719 C 262.375 154.003906 262.800781 158.535156 262.789062 163.105469 Z M 191.101562 91.609375 C 194.605469 91.609375 198.09375 91.863281 201.5625 92.378906 C 205.027344 92.890625 208.4375 93.65625 211.792969 94.667969 C 215.148438 95.683594 218.40625 96.9375 221.578125 98.433594 C 224.746094 99.929688 227.785156 101.644531 230.703125 103.589844 C 223.757812 103.875 216.9375 104.960938 210.246094 106.84375 C 203.558594 108.726562 197.175781 111.351562 191.101562 114.726562 C 185.027344 111.351562 178.648438 108.726562 171.957031 106.84375 C 165.265625 104.960938 158.449219 103.878906 151.503906 103.589844 C 154.417969 101.644531 157.457031 99.929688 160.628906 98.433594 C 163.796875 96.9375 167.058594 95.683594 170.410156 94.667969 C 173.765625 93.652344 177.175781 92.890625 180.644531 92.378906 C 184.109375 91.863281 187.597656 91.609375 191.101562 91.609375 Z M 131.855469 203.234375 C 130.707031 201.558594 129.632812 199.839844 128.636719 198.070312 C 127.636719 196.304688 126.714844 194.5 125.871094 192.652344 C 125.023438 190.808594 124.261719 188.929688 123.578125 187.019531 C 122.894531 185.109375 122.292969 183.171875 121.773438 181.210938 C 121.257812 179.25 120.824219 177.269531 120.472656 175.269531 C 120.125 173.269531 119.863281 171.261719 119.6875 169.242188 C 119.507812 167.21875 119.417969 165.195312 119.417969 163.164062 C 119.414062 161.136719 119.496094 159.113281 119.667969 157.089844 C 119.835938 155.070312 120.09375 153.058594 120.433594 151.058594 C 120.777344 149.058594 121.203125 147.078125 121.714844 145.113281 C 122.226562 143.152344 122.820312 141.210938 123.5 139.300781 C 124.175781 137.386719 124.9375 135.507812 125.773438 133.660156 C 126.613281 131.808594 127.527344 130 128.523438 128.230469 C 129.515625 126.460938 130.582031 124.734375 131.722656 123.054688 C 132.867188 121.375 134.074219 119.75 135.355469 118.171875 C 136.636719 116.597656 137.980469 115.078125 139.394531 113.617188 C 149.714844 118.285156 159.171875 124.304688 167.757812 131.683594 C 167.164062 132.253906 166.566406 132.828125 165.976562 133.417969 C 161.261719 138.066406 156.972656 143.078125 153.109375 148.449219 C 149.242188 153.824219 145.859375 159.484375 142.953125 165.425781 C 140.046875 171.371094 137.664062 177.515625 135.800781 183.863281 C 133.9375 190.210938 132.621094 196.667969 131.855469 203.234375 Z M 191.101562 234.605469 C 186.5 234.617188 181.9375 234.1875 177.421875 233.320312 C 172.902344 232.449219 168.507812 231.152344 164.242188 229.433594 C 159.976562 227.710938 155.914062 225.597656 152.058594 223.089844 C 148.203125 220.582031 144.625 217.730469 141.324219 214.53125 C 146.035156 202.117188 163.378906 179.746094 185.421875 157.742188 C 187.324219 155.847656 189.214844 154.003906 191.097656 152.210938 C 192.980469 154.003906 194.871094 155.847656 196.769531 157.742188 C 218.820312 179.746094 236.15625 202.164062 240.859375 214.53125 C 237.5625 217.730469 233.984375 220.582031 230.132812 223.089844 C 226.277344 225.59375 222.21875 227.707031 217.953125 229.429688 C 213.6875 231.148438 209.296875 232.445312 204.777344 233.316406 C 200.261719 234.1875 195.703125 234.617188 191.101562 234.605469 Z M 191.101562 234.605469 "/>
</g>
</g>
</svg>
